HIERARCHY
ROOT Hips
{
	OFFSET 0.000000 0.000000 0.000000 
	CHANNELS 6 Xposition Yposition Zposition Zrotation Yrotation Xrotation
	JOINT LeftUpLeg
	{
		OFFSET 1.363060 -1.794630 0.839290 
		CHANNELS 3 Zrotation Yrotation Xrotation
		JOINT LeftLeg
		{
			OFFSET 2.448110 -6.726130 0.000000 
			CHANNELS 3 Zrotation Yrotation Xrotation
			JOINT LeftFoot
			{
				OFFSET 2.562200 -7.039590 0.000000 
				CHANNELS 3 Zrotation Yrotation Xrotation
				JOINT LeftToeBase
				{
					OFFSET 0.157640 -0.433110 2.322550 
					CHANNELS 3 Zrotation Yrotation Xrotation
					End Site
					{
						OFFSET 0.000000 0.000000 0.000000 
					}
				}
			}
		}
	}
	JOINT RightUpLeg
	{
		OFFSET -1.305520 -1.794630 0.839290 
		CHANNELS 3 Zrotation Yrotation Xrotation
		JOINT RightLeg
		{
			OFFSET -2.542530 -6.985550 0.000000 
			CHANNELS 3 Zrotation Yrotation Xrotation
			JOINT RightFoot
			{
				OFFSET -2.568260 -7.056230 0.000000 
				CHANNELS 3 Zrotation Yrotation Xrotation
				JOINT RightToeBase
				{
					OFFSET -0.164730 -0.452590 2.363150 
					CHANNELS 3 Zrotation Yrotation Xrotation
					End Site
					{
						OFFSET 0.000000 0.000000 0.000000 
					}
				}
			}
		}
	}
	JOINT Spine
	{
		OFFSET 0.028270 2.035590 -0.193380 
		CHANNELS 3 Zrotation Yrotation Xrotation
		JOINT Spine1
		{
			OFFSET 0.056720 2.048850 -0.042750 
			CHANNELS 3 Zrotation Yrotation Xrotation
			JOINT Neck1
			{
				OFFSET -0.054170 1.746240 0.172020 
				CHANNELS 3 Zrotation Yrotation Xrotation
				JOINT Head
				{
					OFFSET 0.104070 1.761360 -0.123970 
					CHANNELS 3 Zrotation Yrotation Xrotation
					End Site
					{
						OFFSET 0.000000 0.000000 0.000000 
					}
				}
			}
			JOINT LeftArm
			{
				OFFSET 3.362410 1.200890 -0.311210 
				CHANNELS 3 Zrotation Yrotation Xrotation
				JOINT LeftForeArm
				{
					OFFSET 4.983000 -0.000000 -0.000000 
					CHANNELS 3 Zrotation Yrotation Xrotation
					JOINT LeftHand
					{
						OFFSET 3.483560 -0.000000 -0.000000 
						CHANNELS 3 Zrotation Yrotation Xrotation
						JOINT LeftHandIndex1
						{
							OFFSET 0.715260 -0.000000 -0.000000 
							CHANNELS 3 Zrotation Yrotation Xrotation
							End Site
							{
								OFFSET 0.000000 0.000000 0.000000 
							}
						}
					}
				}
			}
			JOINT RightArm
			{
				OFFSET -3.136600 1.374050 -0.404650 
				CHANNELS 3 Zrotation Yrotation Xrotation
				JOINT RightForeArm
				{
					OFFSET -5.241900 -0.000000 -0.000000 
					CHANNELS 3 Zrotation Yrotation Xrotation
					JOINT RightHand
					{
						OFFSET -3.444170 -0.000000 -0.000000 
						CHANNELS 3 Zrotation Yrotation Xrotation
						JOINT RightHandIndex1
						{
							OFFSET -0.622530 -0.000000 -0.000000 
							CHANNELS 3 Zrotation Yrotation Xrotation
							End Site
							{
								OFFSET 0.000000 0.000000 0.000000 
							}
						}
					}
				}
			}
		}
	}
}
MOTION
Frames: 9
Frame Time: 0.041667
0.852487 17.447949 33.029548 178.926572 2.699943 -171.935590 -35.120113 0.697415 2.323514 4.203366 13.332966 40.466327 3.360845 13.302482 30.321159 0.784400 5.654100 15.783900 28.080298 22.982350 -34.448120 -2.367701 -15.779797 38.854568 -1.798836 -9.466377 4.826142 -1.436400 7.577600 -21.438100 0.142038 -5.764041 -3.621078 -4.178912 -2.574892 10.682836 4.288432 5.589565 15.727670 -1.083600 4.217500 23.975900 -71.148167 13.307280 65.115031 114.501846 -57.956759 -76.551548 1.498708 -0.528237 21.497728 -7.125000 0.000000 0.000000 81.848853 -47.936585 30.145771 -80.810278 62.356726 -41.608963 0.569528 -1.650595 1.295768 7.125000 0.000000 0.000000 
0.872276 17.385304 32.753992 179.126303 2.941850 -172.213971 -34.737865 0.783844 1.542412 4.725846 13.953350 42.803944 3.573789 13.728768 31.498215 0.919300 6.108700 17.100300 29.062185 22.495610 -33.235759 -2.555099 -15.861360 39.497604 -1.751155 -8.766129 5.535373 -1.859500 8.567000 -24.450000 0.131463 -5.474659 -3.611950 -4.196601 -2.424303 10.557073 4.161249 5.501769 15.619760 -1.298800 4.223700 23.887100 -71.109903 14.130068 64.983115 114.162306 -58.060390 -76.211362 1.494539 -0.518799 21.466608 -7.125000 0.000000 0.000000 81.776892 -47.699879 30.617795 -80.940527 62.345863 -41.669676 0.566526 -1.633035 1.064297 7.125000 0.000000 0.000000 
0.894710 17.310595 32.483199 179.254625 3.180216 -172.507233 -34.362371 0.872338 0.598419 5.332887 14.625565 45.397750 3.590372 14.059658 31.588352 0.936200 6.163300 17.258900 30.097500 21.617800 -32.040195 -2.790846 -15.963833 40.475824 -1.989852 -8.087589 9.811886 -0.608600 4.993400 -13.889800 0.108956 -5.190291 -3.600323 -4.142569 -2.284036 10.480309 4.202766 5.395042 15.550619 -1.242300 4.154600 23.873500 -71.177446 14.939598 64.658844 113.792017 -58.176585 -75.851839 1.473748 -0.506537 21.205478 -7.125000 0.000000 0.000000 81.825876 -47.304455 30.978695 -80.921337 62.360828 -41.603661 0.538088 -1.620829 1.136722 7.125000 0.000000 0.000000 
0.916509 17.224669 32.214839 179.423804 3.193133 -172.682412 -33.741713 0.850792 -0.510976 5.963466 15.269280 47.959787 3.243094 14.376247 29.660120 0.778500 5.633300 15.724000 31.025676 20.709529 -30.686530 -3.134624 -16.108285 41.015520 -1.086962 -5.668407 0.796693 -1.596400 7.969300 -22.620900 0.297916 -4.958504 -3.504807 -2.976016 -2.322437 11.048071 4.087998 5.590277 15.492657 -1.222900 4.051700 23.931900 -72.411148 15.302468 64.125439 113.018518 -58.432738 -74.997960 1.471159 -0.463046 21.489532 -7.125000 0.000000 0.000000 81.149266 -46.384525 31.369297 -81.034898 62.277206 -41.782859 0.559249 -1.631312 0.657469 7.125000 0.000000 0.000000 
0.938837 17.136097 31.947643 179.640986 3.283867 -172.878280 -33.155987 0.810443 -1.605155 6.645624 15.898703 50.609275 3.003863 14.732134 28.311242 0.711400 5.390600 15.026000 31.920502 20.008018 -29.479761 -3.395730 -16.228804 41.801399 -0.867707 -4.663403 -2.043153 -1.744400 8.312100 -23.666200 0.350187 -4.692905 -3.489169 -2.595824 -2.234742 11.046648 4.032113 5.550723 15.422040 -1.263700 3.994500 23.871700 -72.865548 16.044930 63.739709 112.384038 -58.615910 -74.350994 1.465330 -0.441718 21.577281 -7.125000 0.000000 0.000000 81.051514 -45.844104 31.716440 -81.012722 62.261849 -41.764093 0.537548 -1.644676 0.734765 7.125000 0.000000 0.000000 
0.961800 17.042023 31.683092 179.901697 3.339383 -173.047407 -32.497170 0.695195 -2.796070 7.385298 16.519338 53.355326 2.683010 15.076727 26.446047 0.620700 5.041700 14.027500 32.816591 19.349947 -28.288218 -3.636192 -16.334089 42.569121 -0.749214 -4.005769 -5.010632 -1.869000 8.587800 -24.514200 0.387691 -4.420795 -3.497633 -2.309092 -2.127470 10.898197 3.994920 5.445029 15.361209 -1.298300 3.933100 23.784600 -73.265295 16.863532 63.331480 111.642867 -58.811413 -73.614517 1.463160 -0.423179 21.674446 -7.125000 0.000000 0.000000 81.123751 -45.313698 32.005385 -80.911285 62.261513 -41.669571 0.499554 -1.667856 1.009058 7.125000 0.000000 0.000000 
0.984868 16.944880 31.422034 -179.771650 3.372192 -173.203427 -31.751030 0.501753 -4.062283 8.170890 17.114684 56.148314 2.326731 15.381186 24.289246 0.513200 4.591900 12.748000 33.750195 18.751959 -27.118070 -3.859127 -16.429301 43.320418 -0.730302 -3.678216 -7.927891 -1.991600 8.848500 -25.322400 0.414048 -4.130770 -3.526980 -2.114091 -1.994618 10.600457 3.956445 5.276583 15.284715 -1.358300 3.870100 23.649300 -73.621720 17.718526 62.893048 110.763173 -59.022256 -72.758584 1.464532 -0.407003 21.775276 -7.125000 0.000000 0.000000 81.379569 -44.770584 32.223671 -80.779000 62.271954 -41.539919 0.453980 -1.700553 1.408769 7.125000 0.000000 0.000000 
1.007091 16.846467 31.164785 -179.393557 3.407567 -173.362369 -30.942947 0.240772 -5.397572 9.001346 17.682291 58.987756 1.968797 15.634164 22.013386 0.406800 4.094300 11.342100 34.721994 18.183191 -25.966712 -4.068609 -16.514438 44.062817 -0.782565 -3.707020 -10.140928 -1.984200 8.833000 -25.274300 0.428239 -3.810433 -3.568909 -2.003894 -1.832375 10.189959 3.924572 5.046818 15.200590 -1.426100 3.798200 23.501100 -73.968092 18.558585 62.399513 109.700558 -59.255343 -71.742899 1.467536 -0.389852 21.868156 -7.125000 0.000000 0.000000 81.822201 -44.161643 32.373005 -80.696511 62.291050 -41.441523 0.417972 -1.743862 1.833397 7.125000 0.000000 0.000000 
1.027726 16.746891 30.912933 -178.965176 3.462367 -173.550843 -30.072829 -0.067689 -6.784475 9.869514 18.214559 61.853748 1.631635 15.829535 19.746300 0.299300 3.517400 9.722900 35.743658 17.599506 -24.802541 -4.268788 -16.584866 44.772700 -0.875093 -3.894043 -12.214970 -1.949200 8.759400 -25.045400 0.433798 -3.464210 -3.610452 -1.964338 -1.647218 9.725285 3.908103 4.791751 15.104443 -1.472000 3.713100 23.344900 -74.358690 19.342605 61.798066 108.423219 -59.516496 -70.538627 1.471795 -0.367687 21.972326 -7.125000 0.000000 0.000000 82.406891 -43.409276 32.477586 -80.693287 62.318041 -41.398421 0.401993 -1.794017 2.157330 7.125000 0.000000 0.000000 
